<svg xmlns="http://www.w3.org/2000/svg" viewBox="0 0 24.36 28.09"><defs><style>.cls-1{fill:#59ad9d;}</style></defs><g id="Layer_2" data-name="Layer 2"><g id="Layer_1-2" data-name="Layer 1"><path class="cls-1" d="M24.36,23.72v2.89a1.47,1.47,0,0,1-1.47,1.48H1.49A1.48,1.48,0,0,1,0,26.61V23.72a11.14,11.14,0,0,1,4.83-9.17,7.82,7.82,0,0,0,.9,1.16,8.78,8.78,0,0,0,6.46,3,8.77,8.77,0,0,0,6.44-3,7.21,7.21,0,0,0,.9-1.16A11.14,11.14,0,0,1,24.36,23.72Z"/><path class="cls-1" d="M12.18,15.12a5.92,5.92,0,0,0,4.39-2,8.17,8.17,0,0,0,2.06-5.54C18.63,3.39,15.75,0,12.18,0S5.73,3.39,5.73,7.56A8.18,8.18,0,0,0,7.8,13.1,5.92,5.92,0,0,0,12.18,15.12Z"/></g></g></svg>