<svg xmlns="http://www.w3.org/2000/svg" viewBox="0 0 15.09 17.4"><defs><style>.cls-1{fill:#FFFFFF;}</style></defs><g id="Layer_2" data-name="Layer 2"><g id="Layer_1-2" data-name="Layer 1"><path class="cls-1" d="M15.09,14.69v1.79a.92.92,0,0,1-.91.92H.92A.92.92,0,0,1,0,16.48V14.69A6.92,6.92,0,0,1,3,9a5,5,0,0,0,.56.72,5.43,5.43,0,0,0,4,1.84,5.42,5.42,0,0,0,4-1.84A4.34,4.34,0,0,0,12.1,9,6.92,6.92,0,0,1,15.09,14.69Z"/><path class="cls-1" d="M7.55,9.37a3.69,3.69,0,0,0,2.71-1.25,5.07,5.07,0,0,0,1.28-3.44C11.54,2.1,9.75,0,7.55,0s-4,2.1-4,4.68A5.07,5.07,0,0,0,4.83,8.12,3.71,3.71,0,0,0,7.55,9.37Z"/></g></g></svg>