<svg xmlns="http://www.w3.org/2000/svg" viewBox="0 0 26.37 33.67"><defs><style>.cls-1{fill:#fff;}</style></defs><g id="Layer_2" data-name="Layer 2"><g id="Layer_1-2" data-name="Layer 1"><path class="cls-1" d="M8.21,22.85a.85.85,0,0,0,1.45.59L16.16,17a.84.84,0,0,0,0-1.2l-6.5-6.5a.8.8,0,0,0-.92-.17.77.77,0,0,0-.53.77v3.76H1a1,1,0,0,0-.73.3,1,1,0,0,0-.3.73v3.42a1,1,0,0,0,.3.73,1,1,0,0,0,.73.29H8.21Z"/><path class="cls-1" d="M23.74,0H4.58A2.63,2.63,0,0,0,2,2.63v7.49H4.2V2.63a.37.37,0,0,1,.38-.37H23.74a.37.37,0,0,1,.38.37V24.49H18.69A1.51,1.51,0,0,0,17.18,26v5.43H4.58A.38.38,0,0,1,4.2,31V22.61H2V31a2.63,2.63,0,0,0,2.63,2.63H17.89a2.61,2.61,0,0,0,1.86-.77l5.85-5.85a2.58,2.58,0,0,0,.77-1.86V2.63A2.63,2.63,0,0,0,23.74,0Z"/></g></g></svg>