<svg xmlns="http://www.w3.org/2000/svg" viewBox="0 0 30.48 30.48"><defs><style>.cls-1{fill:#fefefe;}</style></defs><g id="Layer_2" data-name="Layer 2"><g id="Layer_1-2" data-name="Layer 1"><path class="cls-1" d="M23.29,18.32,12.16,7.19a.75.75,0,0,0-1.07,0L2.21,16.07a7.54,7.54,0,0,0,0,10.67l1.53,1.53a7.56,7.56,0,0,0,10.67,0l8.88-8.88A.77.77,0,0,0,23.29,18.32ZM8,22.46a4.51,4.51,0,1,1,6.39,0A4.51,4.51,0,0,1,8,22.46Z"/><path class="cls-1" d="M30.26,7.09,23.38.22a.75.75,0,0,0-1.06,0L15.44,7.09a.77.77,0,0,0,0,1.07L22.32,15a.74.74,0,0,0,1.06,0l6.88-6.87A.77.77,0,0,0,30.26,7.09Zm-8.73-.42a.38.38,0,0,1-.54,0L19.65,5.32a.37.37,0,0,1,0-.53L20,4.42a.37.37,0,0,1,.53,0l1.35,1.35a.37.37,0,0,1,0,.53Zm4.16,4.16a.37.37,0,0,1-.53,0L23.81,9.49a.38.38,0,0,1,0-.54l.36-.36a.38.38,0,0,1,.54,0l1.35,1.34a.4.4,0,0,1,0,.54Z"/></g></g></svg>