<svg xmlns="http://www.w3.org/2000/svg" viewBox="0 0 28.94 24.84"><defs><style>.cls-1{fill:#fff;}</style></defs><g id="Layer_2" data-name="Layer 2"><g id="Layer_1-2" data-name="Layer 1"><path class="cls-1" d="M26.71,12.39A9,9,0,0,0,19.36,9.9a1.42,1.42,0,0,0-.81.11,5.07,5.07,0,0,0-.51,1.7A8.74,8.74,0,0,0,19,18.34c2.13,3.42,6.06,4.07,9,3.75.26,0,.31-.17.36-.37.18-.71.38-1.41.5-2.14A8,8,0,0,0,26.71,12.39Z"/><path class="cls-1" d="M16.61.91A10.52,10.52,0,0,0,11.19.07c-4.15.53-6.92,4-7,8.45v.11c0,.13,0,.26-.06.39,0,.86,0,.94.82,1.22a12.44,12.44,0,0,0,3,.64,8,8,0,0,0,8.82-7.5,1.37,1.37,0,0,0,.09-.72l0-1.37A.33.33,0,0,0,16.61.91Z"/><path class="cls-1" d="M14.88,18.41l-.23-.25c0-.14-.11-.19-.21-.25A6.11,6.11,0,0,0,13,16.66h0A3.21,3.21,0,0,0,11.9,16,7.85,7.85,0,0,0,3,16.66a.47.47,0,0,0-.21.21,12,12,0,0,0-2.7,3.65.68.68,0,0,0,.11.9,14.3,14.3,0,0,0,1.93,1.72,8,8,0,0,0,6.71,1.49c2.93-.7,4.76-2.69,6-5.27.11-.22.33-.44.17-.74C15.05,18.52,15,18.42,14.88,18.41Zm-2.21-1.8a.18.18,0,0,1,.1,0Z"/></g></g></svg>