<svg xmlns="http://www.w3.org/2000/svg" viewBox="0 0 17.4 17.4"><defs><style>.cls-1{fill:#ffffff;}</style></defs><g id="Layer_2" data-name="Layer 2"><g id="Layer_1-2" data-name="Layer 1"><path class="cls-1" d="M15.84,6.74H15.1a7.16,7.16,0,0,0-.49-1.18L15.13,5a1.56,1.56,0,0,0,0-2.21l-.56-.56a1.53,1.53,0,0,0-1.1-.46h0a1.53,1.53,0,0,0-1.11.46l-.52.52a7.16,7.16,0,0,0-1.18-.49V1.56A1.56,1.56,0,0,0,9.1,0H8.3A1.56,1.56,0,0,0,6.74,1.56V2.3a6.82,6.82,0,0,0-1.18.49L5,2.27a1.56,1.56,0,0,0-2.21,0l-.56.56A1.56,1.56,0,0,0,2.27,5l.52.52A7.16,7.16,0,0,0,2.3,6.74H1.56A1.56,1.56,0,0,0,0,8.3v.8a1.56,1.56,0,0,0,1.56,1.56H2.3a7.16,7.16,0,0,0,.49,1.18l-.52.52a1.56,1.56,0,0,0,0,2.21l.56.56a1.57,1.57,0,0,0,1.1.46h0A1.59,1.59,0,0,0,5,15.13l.52-.52a7.16,7.16,0,0,0,1.18.49v.74A1.56,1.56,0,0,0,8.3,17.4h.8a1.56,1.56,0,0,0,1.56-1.56V15.1a7.16,7.16,0,0,0,1.18-.49l.52.52a1.56,1.56,0,0,0,2.21,0l.56-.56a1.56,1.56,0,0,0,0-2.21l-.52-.52a7.16,7.16,0,0,0,.49-1.18h.74A1.56,1.56,0,0,0,17.4,9.1V8.3A1.56,1.56,0,0,0,15.84,6.74ZM8.7,12.27A3.57,3.57,0,1,1,12.27,8.7,3.57,3.57,0,0,1,8.7,12.27Z"/></g></g></svg>